<svg width="400" height="400" viewBox="0 0 400 400" fill="none" xmlns="http://www.w3.org/2000/svg">
<rect width="400" height="400" fill="#25262B"/>
<g clip-path="url(#clip0_5251_11534)">
<path fill-rule="evenodd" clip-rule="evenodd" d="M67.6942 145.379C80.0616 145.378 92.0832 149.407 101.892 156.84C111.702 164.272 118.75 174.694 121.943 186.485C125.136 198.277 124.295 210.779 119.55 222.05C114.805 233.321 106.423 242.731 95.7033 248.818L67.7141 194.683V164.635L67.7837 164.773L72.4005 173.679L77.0771 182.693L81.7635 191.727L86.4598 200.771L91.1464 209.825L95.8427 218.869L100.649 228.217C106.595 221.247 110.117 212.576 110.695 203.482C111.273 194.387 108.877 185.35 103.859 177.701C98.8413 170.052 91.4674 164.196 82.8232 160.993C74.179 157.791 64.7216 157.413 55.8431 159.915C46.9649 162.416 39.1351 167.665 33.507 174.889C27.8788 182.112 24.7497 190.928 24.5804 200.039C24.4111 209.149 27.2106 218.073 32.5666 225.495C37.9226 232.917 45.5521 238.446 54.3315 241.267V254.622C40.9893 251.407 29.3038 243.478 21.4856 232.335C13.6674 221.191 10.2588 207.606 11.9048 194.15C13.5508 180.694 20.1372 168.299 30.4179 159.312C40.6985 150.325 53.9602 145.368 67.6942 145.379Z" fill="#FF5B26"/>
<path d="M355.301 200.291C359.372 200.291 362.243 200.006 363.917 199.436C364.674 199.235 365.336 198.784 365.793 198.158C366.251 197.532 366.474 196.77 366.428 195.999V186.735C363.004 185.304 359.316 184.587 355.597 184.629C351.913 184.629 349.122 185.265 347.224 186.538C346.287 187.168 345.531 188.027 345.029 189.032C344.528 190.036 344.299 191.152 344.365 192.27C344.302 193.468 344.572 194.661 345.141 195.721C345.711 196.78 346.562 197.668 347.604 198.288C349.92 199.666 352.59 200.361 355.293 200.291H355.301ZM357.515 157.699C362.805 157.699 367.307 158.957 371.015 161.472C374.723 163.988 376.553 168.046 376.497 173.647V196.562C376.497 200.891 374.56 203.898 370.689 205.585C366.818 207.272 361.301 208.115 354.145 208.115C348.404 208.115 343.664 206.938 339.919 204.583C336.175 202.229 334.303 198.28 334.303 192.738C334.303 187.517 335.834 183.603 338.897 180.995C341.959 178.387 346.3 177.081 351.916 177.076C357.724 177.076 362.562 178.224 366.428 180.52V175.943C366.428 169.445 362.462 166.196 354.529 166.196C351.641 166.204 348.769 166.641 346.01 167.49C343.44 168.212 341.039 169.43 338.949 171.073V161.714C341.404 160.322 344.078 159.353 346.862 158.847C350.363 158.076 353.943 157.691 357.532 157.699H357.515ZM318.788 207.932C314.345 207.932 310.861 206.755 308.342 204.4C305.824 202.046 304.568 198.702 304.58 194.369V167.059H296.74V158.752H304.58V145.379H315.005V158.752H326.857V167.059H315.005V192.365C315.005 194.72 315.423 196.426 316.263 197.483C317.1 198.536 318.582 199.056 320.708 199.056C321.801 199.049 322.889 198.906 323.947 198.631C324.964 198.395 325.942 198.021 326.857 197.52V206.404C324.317 207.48 321.57 208.001 318.803 207.932H318.788ZM267.985 200.291C272.051 200.291 274.923 200.006 276.602 199.436C277.358 199.235 278.02 198.784 278.478 198.158C278.935 197.532 279.159 196.77 279.115 195.999V186.735C275.687 185.303 271.995 184.586 268.275 184.629C264.6 184.629 261.812 185.265 259.911 186.538C258.972 187.168 258.215 188.027 257.714 189.032C257.213 190.036 256.984 191.152 257.05 192.27C256.989 193.469 257.259 194.662 257.829 195.722C258.4 196.782 259.254 197.669 260.296 198.288C262.612 199.666 265.282 200.361 267.985 200.291ZM270.209 157.699C275.499 157.699 279.999 158.957 283.707 161.472C287.418 163.988 289.24 168.046 289.175 173.647V196.562C289.175 200.891 287.24 203.898 283.366 205.585C279.495 207.272 273.988 208.117 266.844 208.122C261.106 208.122 256.364 206.945 252.62 204.591C248.876 202.236 247.004 198.288 247.004 192.745C247.004 187.525 248.535 183.61 251.597 181.003C254.66 178.395 259.001 177.088 264.622 177.083C270.431 177.083 275.268 178.231 279.137 180.527V175.943C279.137 169.445 275.171 166.196 267.238 166.196C264.34 166.202 261.461 166.638 258.695 167.49C256.125 168.21 253.724 169.428 251.634 171.073V161.714C254.079 160.326 256.746 159.356 259.517 158.847C263.029 158.074 266.618 157.689 270.217 157.699H270.209ZM241.158 158.752L221.154 209.65C217.02 220.033 211.438 225.222 204.41 225.218C202.223 225.28 200.047 224.889 198.023 224.07V215.478C199.559 216.1 201.201 216.425 202.861 216.436C203.975 216.485 205.085 216.288 206.111 215.857C207.137 215.427 208.052 214.775 208.788 213.95C210.241 212.297 211.475 209.782 212.493 206.404L192.689 158.752H204.202L217.457 194.581L230.623 158.752H241.158ZM165.772 200.291C169.832 200.291 172.702 200.006 174.381 199.436C175.138 199.237 175.802 198.786 176.261 198.16C176.719 197.534 176.945 196.771 176.9 195.999V186.735C173.479 185.307 169.797 184.59 166.083 184.629C162.408 184.629 159.617 185.265 157.711 186.538C156.774 187.168 156.018 188.028 155.518 189.032C155.018 190.037 154.791 191.153 154.859 192.27C154.797 193.468 155.065 194.661 155.636 195.72C156.206 196.78 157.056 197.667 158.096 198.288C160.41 199.663 163.072 200.358 165.772 200.291ZM167.995 157.699C173.285 157.699 177.784 158.957 181.494 161.472C185.203 163.988 187.026 168.046 186.962 173.647V196.562C186.962 200.891 185.025 203.898 181.153 205.585C177.281 207.272 171.763 208.117 164.601 208.122C158.862 208.122 154.12 206.945 150.376 204.591C146.632 202.236 144.763 198.288 144.768 192.745C144.768 187.525 146.299 183.61 149.361 181.003C152.424 178.395 156.763 177.088 162.379 177.083C168.182 177.083 173.02 178.231 176.893 180.527V175.943C176.893 169.445 172.924 166.196 164.987 166.196C162.092 166.201 159.214 166.637 156.451 167.49C153.879 168.212 151.477 169.43 149.383 171.073V161.714C151.83 160.325 154.498 159.355 157.274 158.847C160.793 158.073 164.389 157.688 167.995 157.699Z" fill="#F4F4F3"/>
<path d="M376.406 250.574L376.304 254.043H362.517C362.643 250.825 362.721 247.192 362.721 243.159C362.721 239.126 362.643 235.97 362.517 233.227H375.645L375.469 236.734C372.223 236.571 369.296 236.484 366.661 236.484C366.775 237.962 366.826 239.702 366.826 241.719C369.082 241.719 371.489 241.719 374.061 241.544V244.888C371.527 244.775 369.118 244.725 366.826 244.725C366.826 246.879 366.826 248.908 366.965 250.8C369.921 250.8 373.07 250.708 376.406 250.524V250.574ZM351.287 250.286L351.01 253.956C349.528 254.311 348.009 254.492 346.484 254.494C342.785 254.494 339.967 253.488 338.033 251.476C336.125 249.494 335.086 246.847 335.144 244.111C335.105 241.21 336.21 238.408 338.222 236.296C339.303 235.174 340.619 234.296 342.074 233.723C343.532 233.151 345.097 232.896 346.661 232.977C347.922 232.97 349.18 233.121 350.401 233.428L349.829 237.11C348.652 236.723 347.42 236.521 346.179 236.509C345.26 236.438 344.335 236.588 343.486 236.945C342.637 237.303 341.887 237.858 341.301 238.563C340.201 240.001 339.631 241.77 339.692 243.573C339.656 245.481 340.332 247.336 341.593 248.783C342.252 249.525 343.075 250.11 343.997 250.491C344.919 250.874 345.917 251.043 346.917 250.987C348.399 250.958 349.871 250.722 351.287 250.286ZM319.466 239.389C319.466 237.273 318.084 236.208 315.322 236.208C314.424 236.198 313.529 236.273 312.648 236.433C312.762 238.087 312.814 240.191 312.814 242.884H314.32C317.758 242.909 319.474 241.744 319.466 239.389ZM325.523 254.043H320.746C320.065 251.611 319.101 249.265 317.868 247.054C317.469 246.605 316.965 246.257 316.4 246.039C315.836 245.822 315.227 245.74 314.624 245.802H312.838C312.838 248.541 312.884 251.309 312.977 254.106H308.492C308.626 250.883 308.694 247.255 308.694 243.222C308.694 239.339 308.626 236.028 308.492 233.29H311.278C311.609 233.29 312.281 233.29 313.308 233.29C314.332 233.29 315.296 233.29 316.172 233.29C321.114 233.29 323.584 234.96 323.584 238.3C323.584 240.942 322.177 242.796 319.352 243.836V244.024C320.6 244.457 321.627 245.356 322.216 246.528C323.511 248.946 324.618 251.458 325.523 254.043ZM296.907 250.524L296.78 254.043H283.017C283.161 250.82 283.229 247.192 283.219 243.159C283.219 239.277 283.154 235.966 283.017 233.227H296.145L295.968 236.734C292.739 236.571 289.797 236.484 287.174 236.484C287.276 237.962 287.327 239.702 287.327 241.719C289.583 241.719 291.989 241.719 294.561 241.544V244.888C292.028 244.775 289.634 244.725 287.327 244.725C287.327 246.879 287.327 248.908 287.466 250.8C290.422 250.833 293.568 250.758 296.907 250.574V250.524ZM270.697 254.043H265.996C265.996 252.231 265.882 249.175 265.656 244.875C265.427 240.575 265.308 237.895 265.3 236.834H265.059C264.957 237.473 264.665 238.65 264.198 240.379C263.728 242.107 262.867 244.65 261.587 248.006C260.735 249.946 260.095 251.97 259.674 254.043H256.1C255.708 251.957 255.097 249.917 254.275 247.956C253.042 244.575 252.239 242.207 251.867 240.855C251.498 239.531 251.197 238.189 250.967 236.834H250.714C250.714 238.162 250.575 241.017 250.321 245.401C250.068 249.785 249.954 252.653 249.954 254.043H245.671C245.671 253.718 246.063 250.524 246.849 244.437C247.635 238.35 248.028 234.617 248.028 233.165H254.275C254.624 235.867 255.292 238.519 256.265 241.068C257.229 243.64 257.893 246.312 258.241 249.033H258.494C258.494 247.881 259.246 245.272 260.75 241.205C262.254 237.139 263.006 234.509 263.006 233.315H269.216C269.216 235.527 269.464 239.465 269.963 245.126C270.457 250.749 270.697 253.743 270.697 254.043ZM234.086 254.043H229.385C229.385 252.231 229.27 249.175 229.042 244.875C228.827 240.579 228.7 237.899 228.7 236.834H228.447C228.345 237.473 228.054 238.65 227.585 240.379C227.116 242.107 226.255 244.65 224.975 248.006C224.124 249.946 223.482 251.97 223.061 254.043H219.5C219.102 251.957 218.486 249.917 217.663 247.956C216.438 244.575 215.635 242.207 215.255 240.855C214.887 239.502 214.583 238.162 214.355 236.834H214.114C214.114 238.162 213.979 241.017 213.709 245.401C213.455 249.772 213.342 252.653 213.342 254.043H209.071C209.071 253.718 209.451 250.524 210.237 244.437C211.022 238.35 211.415 234.617 211.415 233.165H217.663C218.012 235.867 218.679 238.519 219.652 241.068C220.617 243.64 221.281 246.312 221.629 249.033H221.87C221.87 247.881 222.63 245.276 224.126 241.205C225.621 237.135 226.381 234.505 226.381 233.315H232.59C232.59 235.527 232.84 239.465 233.338 245.126C233.794 250.749 234.086 253.743 234.086 254.043ZM193.748 243.71C193.834 241.761 193.219 239.844 192.012 238.3C191.515 237.65 190.871 237.123 190.132 236.762C189.393 236.401 188.579 236.216 187.754 236.22C186.962 236.234 186.184 236.436 185.487 236.808C184.791 237.181 184.194 237.714 183.75 238.362C182.608 239.892 182.028 241.761 182.102 243.66C182.017 245.61 182.632 247.526 183.838 249.071C184.337 249.719 184.982 250.244 185.72 250.605C186.459 250.965 187.272 251.152 188.096 251.15C188.887 251.143 189.665 250.948 190.364 250.582C191.063 250.215 191.663 249.689 192.113 249.046C193.252 247.52 193.829 245.655 193.748 243.76V243.71ZM198.209 243.247C198.312 246.25 197.221 249.173 195.167 251.388C194.222 252.428 193.062 253.255 191.766 253.812C190.469 254.37 189.066 254.645 187.653 254.619C186.317 254.65 184.99 254.402 183.758 253.891C182.526 253.379 181.418 252.616 180.505 251.651C179.546 250.65 178.797 249.47 178.303 248.179C177.809 246.889 177.58 245.515 177.629 244.136C177.525 241.133 178.617 238.211 180.67 235.995C181.616 234.957 182.776 234.132 184.073 233.577C185.37 233.021 186.772 232.748 188.185 232.776C189.52 232.744 190.846 232.991 192.077 233.501C193.309 234.01 194.418 234.77 195.332 235.732C196.297 236.741 197.048 237.929 197.541 239.228C198.035 240.527 198.262 241.91 198.209 243.297V243.247ZM167.489 250.286L167.21 253.956C165.729 254.311 164.21 254.491 162.686 254.494C158.986 254.494 156.168 253.488 154.234 251.476C152.322 249.495 151.279 246.848 151.332 244.111C151.295 241.21 152.399 238.408 154.411 236.296C155.495 235.178 156.81 234.306 158.267 233.737C159.723 233.168 161.287 232.918 162.851 233.002C164.111 232.995 165.367 233.146 166.589 233.453L166.019 237.135C164.841 236.75 163.61 236.547 162.369 236.534C161.447 236.463 160.521 236.613 159.67 236.97C158.819 237.328 158.067 237.883 157.478 238.588C156.385 240.03 155.822 241.797 155.881 243.598C155.845 245.506 156.522 247.361 157.782 248.808C158.442 249.551 159.264 250.135 160.186 250.517C161.108 250.899 162.106 251.068 163.104 251.012C164.593 250.976 166.069 250.732 167.489 250.286Z" fill="#F4F4F3"/>
<path fill-rule="evenodd" clip-rule="evenodd" d="M67.6949 194.646L47.6757 233.05C43.5246 230.736 39.844 227.683 36.8203 224.045L39.5466 218.87L44.233 209.826L48.9293 200.793L53.6157 191.749L58.3122 182.695L62.9986 173.661L67.6949 164.617V194.646Z" fill="#FF5B26"/>
</g>
<defs>
<clipPath id="clip0_5251_11534">
<rect width="365" height="109.243" fill="white" transform="translate(11.5 145.379)"/>
</clipPath>
</defs>
</svg>
